<?xml version="1.0" encoding="utf-8"?>
<!-- Generator: Adobe Illustrator 21.1.0, SVG Export Plug-In . SVG Version: 6.00 Build 0)  -->
<svg version="1.1" id="Layer_1" xmlns="http://www.w3.org/2000/svg" xmlns:xlink="http://www.w3.org/1999/xlink" x="0px" y="0px"
	 viewBox="0 0 16 16" style="enable-background:new 0 0 16 16;" xml:space="preserve">
<style type="text/css">
	.st0{fill:#2F2F2F;}
	.st1{fill:#FFFFFF;}
</style>
<g>
	<ellipse class="st0" cx="8" cy="8.1" rx="7.1" ry="3.9"/>
	<g>
		<path class="st1" d="M10.5,6.6c0.3,0,0.7,0,1,0c0.3,0,0.7,0,1,0c0.5,0,0.9,0.4,1,0.9C13.6,8.1,13.4,8.6,13,9
			c-0.3,0.4-0.8,0.5-1.3,0.5c-0.3,0-0.6,0-0.9,0c-0.1,0-0.1,0-0.1,0.1c-0.1,0.3-0.1,0.6-0.2,1c-0.3,0-0.6,0-0.9,0
			C10,9.3,10.3,7.9,10.5,6.6z M10.9,8.9c0.3,0,0.6,0,0.9,0c0.3,0,0.5-0.2,0.7-0.5c0.1-0.2,0.1-0.4,0.1-0.7c0-0.2-0.1-0.4-0.3-0.4
			c-0.3-0.1-0.7,0-1,0C11.2,7.8,11,8.3,10.9,8.9z"/>
		<path class="st1" d="M3.8,10.6c-0.3,0-0.6,0-0.9,0c0.3-1.3,0.5-2.6,0.8-4c0,0,0.1,0,0.1,0c0.5,0,1.1,0,1.6,0c0.2,0,0.3,0,0.5,0.1
			c0.5,0.1,0.8,0.4,0.8,0.9c0.1,0.9-0.5,1.6-1.1,1.8C5.4,9.5,5.2,9.5,5,9.5c-0.3,0-0.6,0-0.8,0C4.1,9.5,4,9.5,4,9.6
			C4,9.9,3.9,10.3,3.8,10.6z M4.2,8.9c0.3,0,0.6,0,0.9,0c0.3,0,0.6-0.2,0.7-0.5C5.8,8.2,5.9,8,5.8,7.7c0-0.3-0.1-0.4-0.4-0.5
			c-0.3,0-0.7,0-1-0.1C4.4,7.8,4.3,8.3,4.2,8.9z"/>
		<path class="st1" d="M8.7,9.5c0.1-0.4,0.1-0.7,0.2-1.1C9,8.2,9,7.9,9.1,7.7c0-0.3,0-0.4-0.3-0.4c-0.3,0-0.5,0-0.8,0
			c0,0-0.1,0-0.1,0.1C7.8,7.9,7.7,8.4,7.6,9c0,0.2-0.1,0.4-0.1,0.6c-0.3,0-0.6,0-0.9,0c0.3-1.3,0.5-2.6,0.8-4c0.3,0,0.6,0,0.9,0
			C8.1,5.9,8.1,6.2,8,6.6c0,0,0.1,0,0.1,0c0.3,0,0.7,0,1,0c0.1,0,0.1,0,0.2,0C9.8,6.8,10,7,10,7.5c-0.1,0.7-0.2,1.3-0.4,2
			c0,0,0,0.1-0.1,0.1C9.3,9.5,9,9.5,8.7,9.5z"/>
	</g>
</g>
</svg>
